<svg width="31" height="29" viewBox="0 0 31 29" fill="none" xmlns="http://www.w3.org/2000/svg">
<path d="M15.4999 1.68408V19.222" stroke="#201B10" stroke-width="2.5" stroke-miterlimit="10" stroke-linecap="round"/>
<path d="M22.2446 7.87339L16.4623 2.08964C16.2065 1.83654 15.8612 1.69458 15.5013 1.69458C15.1414 1.69458 14.7961 1.83654 14.5403 2.08964L8.75505 7.87339M2.01026 17.198V23.9428C2.00968 24.3859 2.09654 24.8248 2.26585 25.2343C2.43516 25.6438 2.6836 26.0159 2.99694 26.3292C3.31028 26.6426 3.68236 26.891 4.09186 27.0603C4.50137 27.2296 4.94026 27.3165 5.38338 27.3159H25.6178C26.0608 27.3163 26.4995 27.2293 26.9088 27.0599C27.3182 26.8905 27.6901 26.642 28.0033 26.3287C28.3164 26.0154 28.5648 25.6434 28.734 25.234C28.9032 24.8245 28.99 24.3858 28.9894 23.9428V17.198" stroke="#201B10" stroke-width="2.5" stroke-linecap="round" stroke-linejoin="round"/>
</svg>
